<?xml version="1.0" encoding="UTF-8" standalone="no"?>
<svg
   xmlns:dc="http://purl.org/dc/elements/1.1/"
   xmlns:cc="http://creativecommons.org/ns#"
   xmlns:rdf="http://www.w3.org/1999/02/22-rdf-syntax-ns#"
   xmlns:svg="http://www.w3.org/2000/svg"
   xmlns="http://www.w3.org/2000/svg"
   xmlns:sodipodi="http://sodipodi.sourceforge.net/DTD/sodipodi-0.dtd"
   xmlns:inkscape="http://www.inkscape.org/namespaces/inkscape"
   id="svg"
   version="1.1"
   width="400"
   height="106.36420919974796"
   viewBox="0, 0, 400,106.36420919974796"
   sodipodi:docname="footer.svg"
   inkscape:version="1.0.1 (3bc2e813f5, 2020-09-07)">
  <metadata
     id="metadata34">
    <rdf:RDF>
      <cc:Work
         rdf:about="">
        <dc:format>image/svg+xml</dc:format>
        <dc:type
           rdf:resource="http://purl.org/dc/dcmitype/StillImage" />
      </cc:Work>
    </rdf:RDF>
  </metadata>
  <defs
     id="defs32" />
  <sodipodi:namedview
     pagecolor="#ffffff"
     bordercolor="#666666"
     borderopacity="1"
     objecttolerance="10"
     gridtolerance="10"
     guidetolerance="10"
     inkscape:pageopacity="0"
     inkscape:pageshadow="2"
     inkscape:window-width="1920"
     inkscape:window-height="1001"
     id="namedview30"
     showgrid="false"
     inkscape:zoom="2.6675603"
     inkscape:cx="157.3857"
     inkscape:cy="39.269261"
     inkscape:window-x="1699"
     inkscape:window-y="-9"
     inkscape:window-maximized="1"
     inkscape:current-layer="svg" />
  <g
     id="svgg">
    <path
       id="path0"
       d="M399.167 28.482 C 399.167 28.584,398.979 28.667,398.750 28.667 C 398.521 28.667,398.333 28.750,398.333 28.851 C 398.333 28.965,398.173 28.996,397.917 28.932 C 397.676 28.871,397.500 28.899,397.500 28.997 C 397.500 29.090,397.313 29.167,397.083 29.167 C 396.854 29.167,396.667 29.250,396.667 29.351 C 396.667 29.465,396.507 29.496,396.250 29.432 C 396.010 29.371,395.833 29.399,395.833 29.497 C 395.833 29.590,395.650 29.667,395.427 29.667 C 395.203 29.667,394.971 29.745,394.912 29.840 C 394.854 29.936,394.662 29.968,394.486 29.912 C 394.307 29.856,394.167 29.889,394.167 29.989 C 394.167 30.087,394.016 30.167,393.831 30.167 C 393.646 30.167,393.344 30.260,393.159 30.375 C 392.882 30.547,392.795 30.539,392.664 30.333 C 392.528 30.120,392.505 30.126,392.503 30.375 C 392.501 30.572,392.369 30.667,392.093 30.667 C 391.869 30.667,391.640 30.742,391.583 30.834 C 391.526 30.926,391.297 30.955,391.073 30.899 C 390.825 30.837,390.667 30.869,390.667 30.982 C 390.667 31.084,390.479 31.167,390.250 31.167 C 390.021 31.167,389.833 31.250,389.833 31.351 C 389.833 31.465,389.673 31.496,389.417 31.432 C 389.176 31.371,389.000 31.399,389.000 31.497 C 389.000 31.590,388.813 31.667,388.583 31.667 C 388.354 31.667,388.167 31.750,388.167 31.851 C 388.167 31.965,388.007 31.996,387.750 31.932 C 387.510 31.871,387.333 31.899,387.333 31.997 C 387.333 32.090,387.146 32.167,386.917 32.167 C 386.688 32.167,386.500 32.250,386.500 32.353 C 386.500 32.461,386.327 32.506,386.083 32.459 C 385.854 32.415,385.667 32.444,385.667 32.523 C 385.667 32.602,385.479 32.667,385.250 32.667 C 385.021 32.667,384.833 32.750,384.833 32.851 C 384.833 32.965,384.673 32.996,384.417 32.932 C 384.176 32.871,384.000 32.899,384.000 32.997 C 384.000 33.090,383.813 33.167,383.583 33.167 C 383.354 33.167,383.167 33.250,383.167 33.353 C 383.167 33.461,382.993 33.506,382.750 33.459 C 382.521 33.415,382.333 33.444,382.333 33.523 C 382.333 33.602,382.146 33.667,381.917 33.667 C 381.688 33.667,381.500 33.750,381.500 33.853 C 381.500 33.961,381.327 34.006,381.083 33.959 C 380.854 33.915,380.667 33.944,380.667 34.023 C 380.667 34.102,380.479 34.167,380.250 34.167 C 380.021 34.167,379.833 34.251,379.833 34.354 C 379.833 34.474,379.651 34.505,379.325 34.440 C 379.010 34.377,378.855 34.401,378.918 34.503 C 378.976 34.597,378.802 34.667,378.510 34.667 C 378.229 34.667,378.000 34.750,378.000 34.851 C 378.000 34.963,377.842 34.997,377.601 34.936 C 377.337 34.870,377.171 34.916,377.111 35.072 C 377.056 35.216,376.887 35.272,376.677 35.218 C 376.467 35.163,376.333 35.208,376.333 35.333 C 376.333 35.462,376.180 35.510,375.925 35.461 C 375.685 35.415,375.483 35.470,375.435 35.595 C 375.388 35.717,375.208 35.769,375.010 35.718 C 374.800 35.663,374.667 35.708,374.667 35.833 C 374.667 35.962,374.513 36.010,374.258 35.961 C 374.002 35.912,373.816 35.971,373.759 36.120 C 373.701 36.271,373.547 36.318,373.334 36.250 C 373.142 36.189,373.000 36.220,373.000 36.322 C 373.000 36.420,372.846 36.500,372.657 36.500 C 372.436 36.500,372.352 36.426,372.421 36.292 C 372.480 36.177,372.379 36.267,372.197 36.492 C 371.914 36.840,371.826 36.868,371.599 36.680 C 371.373 36.493,371.333 36.502,371.333 36.744 C 371.333 36.984,371.220 37.014,370.625 36.932 C 370.123 36.863,370.014 36.879,370.250 36.989 C 370.599 37.151,370.389 37.236,369.792 37.175 C 369.631 37.159,369.500 37.225,369.500 37.323 C 369.500 37.420,369.313 37.500,369.083 37.500 C 368.854 37.500,368.667 37.576,368.667 37.670 C 368.667 37.768,368.490 37.795,368.250 37.735 C 367.993 37.671,367.833 37.701,367.833 37.815 C 367.833 37.917,367.646 38.000,367.417 38.000 C 367.188 38.000,367.000 38.083,367.000 38.185 C 367.000 38.299,366.840 38.329,366.583 38.265 C 366.343 38.205,366.167 38.232,366.167 38.330 C 366.167 38.424,365.984 38.500,365.760 38.500 C 365.536 38.500,365.303 38.582,365.241 38.681 C 365.179 38.781,364.988 38.825,364.815 38.780 C 364.642 38.735,364.500 38.766,364.500 38.849 C 364.500 38.932,364.317 39.000,364.093 39.000 C 363.869 39.000,363.640 39.075,363.583 39.167 C 363.526 39.259,363.297 39.289,363.073 39.233 C 362.825 39.170,362.667 39.203,362.667 39.315 C 362.667 39.417,362.479 39.500,362.250 39.500 C 362.021 39.500,361.833 39.576,361.833 39.670 C 361.833 39.768,361.657 39.795,361.417 39.735 C 361.160 39.671,361.000 39.701,361.000 39.815 C 361.000 39.917,360.813 40.000,360.583 40.000 C 360.354 40.000,360.167 40.083,360.167 40.185 C 360.167 40.299,360.007 40.329,359.750 40.265 C 359.510 40.205,359.333 40.232,359.333 40.330 C 359.333 40.424,359.150 40.500,358.927 40.500 C 358.703 40.500,358.469 40.582,358.408 40.681 C 358.346 40.781,358.154 40.825,357.981 40.780 C 357.808 40.735,357.667 40.766,357.667 40.849 C 357.667 40.932,357.484 41.000,357.260 41.000 C 357.036 41.000,356.803 41.082,356.741 41.181 C 356.679 41.281,356.488 41.325,356.315 41.280 C 356.142 41.235,356.000 41.266,356.000 41.349 C 356.000 41.432,355.817 41.500,355.593 41.500 C 355.369 41.500,355.140 41.575,355.083 41.667 C 355.026 41.759,354.797 41.789,354.573 41.733 C 354.325 41.670,354.167 41.703,354.167 41.815 C 354.167 41.917,353.979 42.000,353.750 42.000 C 353.521 42.000,353.333 42.083,353.333 42.185 C 353.333 42.299,353.173 42.329,352.917 42.265 C 352.655 42.199,352.500 42.231,352.500 42.350 C 352.500 42.462,352.330 42.506,352.083 42.459 C 351.791 42.403,351.667 42.453,351.667 42.626 C 351.667 42.799,351.542 42.848,351.250 42.793 C 351.021 42.749,350.833 42.777,350.833 42.856 C 350.833 42.935,350.646 43.000,350.417 43.000 C 350.188 43.000,350.000 43.075,350.000 43.167 C 350.000 43.408,349.377 43.372,349.277 43.125 C 349.227 43.001,349.188 43.034,349.180 43.208 C 349.171 43.405,349.031 43.500,348.750 43.500 C 348.521 43.500,348.333 43.583,348.333 43.685 C 348.333 43.799,348.173 43.829,347.917 43.765 C 347.676 43.705,347.500 43.732,347.500 43.830 C 347.500 43.924,347.275 44.000,347.000 44.000 C 346.725 44.000,346.500 44.083,346.500 44.185 C 346.500 44.299,346.340 44.329,346.083 44.265 C 345.843 44.205,345.667 44.232,345.667 44.330 C 345.667 44.424,345.479 44.500,345.250 44.500 C 345.021 44.500,344.833 44.584,344.833 44.686 C 344.833 44.794,344.661 44.839,344.425 44.794 C 344.185 44.748,343.983 44.804,343.935 44.928 C 343.888 45.051,343.708 45.103,343.510 45.051 C 343.299 44.996,343.167 45.041,343.167 45.168 C 343.167 45.310,343.007 45.343,342.658 45.273 C 342.343 45.210,342.189 45.234,342.252 45.336 C 342.350 45.496,342.130 45.567,341.708 45.512 C 341.594 45.498,341.500 45.573,341.500 45.680 C 341.500 45.808,341.326 45.840,340.992 45.773 C 340.676 45.710,340.522 45.734,340.585 45.836 C 340.641 45.927,340.501 46.000,340.270 46.000 C 340.041 46.000,339.803 46.081,339.742 46.180 C 339.680 46.280,339.447 46.314,339.218 46.257 C 338.953 46.190,338.844 46.215,338.913 46.327 C 339.021 46.503,338.818 46.562,338.292 46.509 C 338.131 46.492,338.000 46.568,338.000 46.676 C 338.000 46.794,337.838 46.841,337.592 46.794 C 337.351 46.748,337.150 46.804,337.102 46.928 C 337.055 47.051,336.875 47.103,336.677 47.051 C 336.466 46.996,336.333 47.041,336.333 47.168 C 336.333 47.309,336.174 47.343,335.835 47.275 C 335.489 47.206,335.349 47.238,335.376 47.379 C 335.400 47.500,335.264 47.567,335.042 47.544 C 334.835 47.522,334.667 47.578,334.667 47.669 C 334.667 47.759,334.475 47.833,334.240 47.833 C 333.946 47.833,333.851 47.769,333.934 47.625 C 334.003 47.504,333.990 47.475,333.902 47.556 C 333.818 47.632,333.748 47.782,333.746 47.889 C 333.743 47.996,333.574 48.065,333.371 48.044 C 333.167 48.022,333.000 48.078,333.000 48.169 C 333.000 48.259,332.817 48.333,332.593 48.333 C 332.369 48.333,332.140 48.409,332.083 48.501 C 332.026 48.593,331.797 48.622,331.573 48.566 C 331.325 48.504,331.167 48.536,331.167 48.649 C 331.167 48.750,330.979 48.833,330.750 48.833 C 330.521 48.833,330.333 48.916,330.333 49.018 C 330.333 49.132,330.173 49.163,329.917 49.098 C 329.676 49.038,329.500 49.066,329.500 49.163 C 329.500 49.257,329.313 49.333,329.083 49.333 C 328.854 49.333,328.667 49.416,328.667 49.518 C 328.667 49.632,328.507 49.663,328.250 49.598 C 328.010 49.538,327.833 49.566,327.833 49.663 C 327.833 49.757,327.650 49.833,327.427 49.833 C 327.203 49.833,326.971 49.911,326.912 50.007 C 326.854 50.102,326.662 50.135,326.486 50.079 C 326.307 50.022,326.167 50.056,326.167 50.155 C 326.167 50.253,325.984 50.333,325.760 50.333 C 325.536 50.333,325.303 50.414,325.242 50.514 C 325.180 50.614,324.947 50.648,324.718 50.590 C 324.453 50.524,324.344 50.548,324.413 50.660 C 324.478 50.766,324.320 50.833,324.010 50.833 C 323.729 50.833,323.500 50.916,323.500 51.018 C 323.500 51.132,323.340 51.163,323.083 51.098 C 322.843 51.038,322.667 51.066,322.667 51.163 C 322.667 51.257,322.479 51.333,322.250 51.333 C 322.021 51.333,321.833 51.416,321.833 51.518 C 321.833 51.632,321.673 51.663,321.417 51.598 C 321.176 51.538,321.000 51.566,321.000 51.663 C 321.000 51.757,320.813 51.833,320.583 51.833 C 320.354 51.833,320.167 51.916,320.167 52.018 C 320.167 52.132,320.007 52.163,319.750 52.098 C 319.510 52.038,319.333 52.066,319.333 52.163 C 319.333 52.257,319.146 52.333,318.917 52.333 C 318.688 52.333,318.500 52.417,318.500 52.519 C 318.500 52.628,318.327 52.672,318.083 52.626 C 317.854 52.582,317.667 52.611,317.667 52.690 C 317.667 52.769,317.484 52.833,317.260 52.833 C 317.036 52.833,316.806 52.909,316.750 53.001 C 316.693 53.093,316.452 53.119,316.215 53.060 C 315.913 52.984,315.819 53.008,315.902 53.142 C 315.981 53.270,315.851 53.333,315.510 53.333 C 315.229 53.333,315.000 53.416,315.000 53.518 C 315.000 53.632,314.840 53.663,314.583 53.598 C 314.343 53.538,314.167 53.566,314.167 53.663 C 314.167 53.757,313.979 53.833,313.750 53.833 C 313.521 53.833,313.333 53.917,313.333 54.019 C 313.333 54.128,313.160 54.172,312.917 54.126 C 312.688 54.082,312.500 54.111,312.500 54.190 C 312.500 54.269,312.313 54.333,312.083 54.333 C 311.854 54.333,311.667 54.417,311.667 54.519 C 311.667 54.628,311.493 54.672,311.250 54.626 C 311.021 54.582,310.833 54.611,310.833 54.690 C 310.833 54.769,310.646 54.833,310.417 54.833 C 310.188 54.833,310.000 54.914,310.000 55.013 C 310.000 55.128,309.811 55.152,309.479 55.079 C 309.117 54.999,308.993 55.021,309.072 55.149 C 309.144 55.265,309.032 55.333,308.770 55.333 C 308.541 55.333,308.303 55.414,308.242 55.514 C 308.180 55.614,307.947 55.648,307.718 55.590 C 307.453 55.524,307.344 55.548,307.413 55.660 C 307.478 55.766,307.320 55.833,307.010 55.833 C 306.729 55.833,306.500 55.917,306.500 56.019 C 306.500 56.127,306.328 56.173,306.092 56.127 C 305.851 56.082,305.650 56.137,305.602 56.262 C 305.555 56.384,305.375 56.436,305.177 56.384 C 304.967 56.329,304.833 56.374,304.833 56.500 C 304.833 56.625,304.682 56.677,304.450 56.632 C 304.238 56.592,303.975 56.655,303.865 56.774 C 303.755 56.892,303.552 56.946,303.415 56.893 C 303.278 56.841,303.167 56.889,303.167 57.002 C 303.167 57.129,303.031 57.170,302.804 57.111 C 302.572 57.050,302.369 57.116,302.239 57.293 C 302.068 57.528,301.994 57.536,301.768 57.348 C 301.539 57.158,301.500 57.168,301.500 57.416 C 301.500 57.633,301.398 57.686,301.092 57.627 C 300.840 57.579,300.650 57.637,300.595 57.779 C 300.536 57.932,300.368 57.973,300.087 57.903 C 299.809 57.833,299.667 57.866,299.667 58.001 C 299.667 58.129,299.511 58.176,299.250 58.126 C 298.968 58.072,298.833 58.121,298.833 58.276 C 298.833 58.438,298.710 58.475,298.417 58.402 C 298.160 58.337,298.000 58.368,298.000 58.482 C 298.000 58.584,297.817 58.667,297.593 58.667 C 297.369 58.667,297.138 58.745,297.079 58.840 C 297.020 58.936,296.828 58.968,296.653 58.912 C 296.461 58.851,296.333 58.890,296.333 59.008 C 296.333 59.128,296.172 59.175,295.925 59.127 C 295.668 59.078,295.483 59.137,295.426 59.286 C 295.368 59.437,295.214 59.485,295.001 59.417 C 294.809 59.356,294.667 59.387,294.667 59.489 C 294.667 59.587,294.484 59.667,294.260 59.667 C 294.036 59.667,293.806 59.742,293.750 59.834 C 293.693 59.926,293.452 59.953,293.215 59.893 C 292.913 59.817,292.819 59.842,292.902 59.976 C 292.978 60.100,292.874 60.167,292.603 60.167 C 292.374 60.167,292.138 60.245,292.079 60.340 C 292.020 60.436,291.835 60.470,291.667 60.417 C 291.499 60.363,291.313 60.398,291.254 60.493 C 291.195 60.589,290.964 60.667,290.740 60.667 C 290.516 60.667,290.333 60.750,290.333 60.851 C 290.333 60.965,290.173 60.996,289.917 60.932 C 289.676 60.871,289.500 60.899,289.500 60.997 C 289.500 61.090,289.346 61.167,289.157 61.167 C 288.940 61.167,288.857 61.096,288.933 60.974 C 289.006 60.855,288.978 60.827,288.859 60.901 C 288.753 60.966,288.667 61.136,288.667 61.279 C 288.667 61.466,288.550 61.517,288.250 61.459 C 288.021 61.415,287.833 61.444,287.833 61.523 C 287.833 61.602,287.650 61.667,287.427 61.667 C 287.203 61.667,286.971 61.745,286.912 61.840 C 286.854 61.936,286.662 61.968,286.486 61.912 C 286.307 61.856,286.167 61.889,286.167 61.989 C 286.167 62.087,285.984 62.167,285.760 62.167 C 285.536 62.167,285.305 62.245,285.246 62.340 C 285.187 62.436,284.995 62.468,284.819 62.412 C 284.641 62.356,284.500 62.389,284.500 62.489 C 284.500 62.587,284.275 62.667,284.000 62.667 C 283.725 62.667,283.500 62.750,283.500 62.851 C 283.500 62.965,283.340 62.996,283.083 62.932 C 282.843 62.871,282.667 62.899,282.667 62.997 C 282.667 63.090,282.479 63.167,282.250 63.167 C 282.021 63.167,281.833 63.250,281.833 63.353 C 281.833 63.461,281.660 63.506,281.417 63.459 C 281.188 63.415,281.000 63.444,281.000 63.523 C 281.000 63.602,280.813 63.667,280.583 63.667 C 280.354 63.667,280.167 63.750,280.167 63.853 C 280.167 63.961,279.993 64.006,279.750 63.959 C 279.521 63.915,279.333 63.944,279.333 64.023 C 279.333 64.102,279.146 64.167,278.917 64.167 C 278.688 64.167,278.500 64.250,278.500 64.351 C 278.500 64.465,278.340 64.496,278.083 64.432 C 277.843 64.371,277.667 64.399,277.667 64.497 C 277.667 64.590,277.484 64.667,277.260 64.667 C 277.036 64.667,276.803 64.748,276.742 64.847 C 276.680 64.947,276.447 64.981,276.218 64.923 C 275.953 64.857,275.844 64.882,275.913 64.993 C 275.978 65.099,275.820 65.167,275.510 65.167 C 275.229 65.167,275.000 65.250,275.000 65.353 C 275.000 65.461,274.827 65.506,274.583 65.459 C 274.354 65.415,274.167 65.444,274.167 65.523 C 274.167 65.602,273.979 65.667,273.750 65.667 C 273.521 65.667,273.333 65.750,273.333 65.853 C 273.333 65.961,273.160 66.006,272.917 65.959 C 272.688 65.915,272.500 65.944,272.500 66.023 C 272.500 66.102,272.313 66.167,272.083 66.167 C 271.854 66.167,271.667 66.242,271.667 66.333 C 271.667 66.578,271.168 66.537,271.161 66.292 C 271.158 66.177,271.043 66.233,270.903 66.417 C 270.764 66.600,270.504 66.727,270.325 66.698 C 270.146 66.669,270.000 66.735,270.000 66.844 C 270.000 66.975,269.830 67.008,269.492 66.940 C 269.176 66.877,269.022 66.901,269.085 67.003 C 269.141 67.094,268.997 67.167,268.760 67.167 C 268.525 67.167,268.333 67.250,268.333 67.352 C 268.333 67.463,268.135 67.509,267.842 67.466 C 267.572 67.426,267.389 67.455,267.435 67.530 C 267.523 67.673,267.288 67.726,266.792 67.675 C 266.631 67.659,266.500 67.734,266.500 67.842 C 266.500 67.961,266.338 68.008,266.092 67.961 C 265.835 67.912,265.650 67.971,265.593 68.120 C 265.535 68.271,265.381 68.318,265.167 68.250 C 264.966 68.186,264.833 68.220,264.833 68.335 C 264.833 68.461,264.662 68.489,264.329 68.416 C 263.954 68.333,263.836 68.362,263.870 68.527 C 263.900 68.669,263.781 68.736,263.542 68.710 C 263.335 68.688,263.167 68.753,263.167 68.854 C 263.167 68.974,262.950 69.000,262.542 68.929 C 262.144 68.860,261.999 68.876,262.143 68.973 C 262.307 69.084,262.317 69.157,262.177 69.244 C 262.072 69.309,261.876 69.271,261.743 69.161 C 261.547 68.998,261.500 69.012,261.500 69.230 C 261.500 69.405,261.357 69.500,261.093 69.500 C 260.869 69.500,260.638 69.578,260.579 69.673 C 260.520 69.769,260.328 69.801,260.153 69.746 C 259.974 69.689,259.833 69.723,259.833 69.822 C 259.833 69.920,259.608 70.000,259.333 70.000 C 259.058 70.000,258.833 70.083,258.833 70.185 C 258.833 70.299,258.673 70.329,258.417 70.265 C 258.176 70.205,258.000 70.232,258.000 70.330 C 258.000 70.424,257.813 70.500,257.583 70.500 C 257.354 70.500,257.167 70.583,257.167 70.685 C 257.167 70.799,257.007 70.829,256.750 70.765 C 256.510 70.705,256.333 70.732,256.333 70.830 C 256.333 70.924,256.146 71.000,255.917 71.000 C 255.688 71.000,255.500 71.083,255.500 71.185 C 255.500 71.299,255.340 71.329,255.083 71.265 C 254.843 71.205,254.667 71.232,254.667 71.330 C 254.667 71.424,254.479 71.500,254.250 71.500 C 254.021 71.500,253.833 71.583,253.833 71.685 C 253.833 71.799,253.673 71.829,253.417 71.765 C 253.176 71.705,253.000 71.732,253.000 71.830 C 253.000 71.924,252.817 72.000,252.593 72.000 C 252.369 72.000,252.136 72.082,252.074 72.181 C 252.013 72.281,251.821 72.325,251.648 72.280 C 251.475 72.235,251.333 72.266,251.333 72.349 C 251.333 72.432,251.161 72.500,250.950 72.500 C 250.739 72.500,250.480 72.587,250.374 72.693 C 250.228 72.839,250.118 72.834,249.924 72.673 C 249.710 72.495,249.667 72.505,249.667 72.730 C 249.667 72.919,249.517 73.000,249.167 73.000 C 248.892 73.000,248.667 73.083,248.667 73.185 C 248.667 73.300,248.505 73.329,248.236 73.261 C 247.957 73.191,247.843 73.214,247.913 73.327 C 247.978 73.432,247.820 73.500,247.510 73.500 C 247.229 73.500,247.000 73.583,247.000 73.685 C 247.000 73.799,246.840 73.829,246.583 73.765 C 246.343 73.705,246.167 73.732,246.167 73.830 C 246.167 73.924,245.979 74.000,245.750 74.000 C 245.521 74.000,245.333 74.084,245.333 74.186 C 245.333 74.295,245.160 74.339,244.917 74.293 C 244.688 74.249,244.500 74.277,244.500 74.356 C 244.500 74.435,244.313 74.500,244.083 74.500 C 243.854 74.500,243.667 74.584,243.667 74.686 C 243.667 74.795,243.493 74.839,243.250 74.793 C 243.021 74.749,242.833 74.777,242.833 74.856 C 242.833 74.935,242.650 75.000,242.427 75.000 C 242.203 75.000,241.970 75.081,241.908 75.180 C 241.846 75.280,241.614 75.314,241.385 75.257 C 241.119 75.190,241.010 75.215,241.079 75.327 C 241.144 75.432,240.987 75.500,240.677 75.500 C 240.396 75.500,240.167 75.583,240.167 75.685 C 240.167 75.799,240.007 75.829,239.750 75.765 C 239.510 75.705,239.333 75.732,239.333 75.830 C 239.333 75.924,239.146 76.000,238.917 76.000 C 238.688 76.000,238.500 76.084,238.500 76.186 C 238.500 76.295,238.327 76.339,238.083 76.293 C 237.854 76.249,237.667 76.277,237.667 76.356 C 237.667 76.435,237.479 76.500,237.250 76.500 C 237.021 76.500,236.833 76.584,236.833 76.688 C 236.833 76.808,236.651 76.838,236.325 76.773 C 236.010 76.710,235.855 76.734,235.918 76.836 C 235.974 76.926,235.921 77.009,235.802 77.019 C 235.437 77.051,235.264 77.096,234.942 77.242 C 234.735 77.336,234.586 77.307,234.492 77.154 C 234.378 76.970,234.330 76.981,234.241 77.213 C 234.179 77.374,233.956 77.500,233.732 77.500 C 233.513 77.500,233.333 77.583,233.333 77.685 C 233.333 77.796,233.175 77.830,232.934 77.769 C 232.665 77.702,232.504 77.749,232.440 77.915 C 232.388 78.053,232.235 78.118,232.094 78.064 C 231.878 77.981,231.333 78.329,231.333 78.550 C 231.333 78.591,231.637 78.673,232.007 78.732 C 232.378 78.791,232.809 78.908,232.966 78.992 C 233.122 79.075,233.569 79.224,233.958 79.322 C 234.348 79.420,234.985 79.580,235.375 79.678 C 235.765 79.776,236.205 79.921,236.354 80.000 C 236.504 80.079,236.916 80.196,237.271 80.260 C 237.626 80.324,237.992 80.435,238.083 80.507 C 238.175 80.578,238.550 80.691,238.917 80.757 C 239.283 80.823,239.658 80.935,239.750 81.007 C 239.842 81.078,240.217 81.191,240.583 81.257 C 240.950 81.323,241.325 81.432,241.417 81.500 C 241.508 81.568,241.883 81.677,242.250 81.743 C 242.617 81.809,242.992 81.922,243.083 81.993 C 243.175 82.065,243.550 82.177,243.917 82.243 C 244.283 82.309,244.658 82.422,244.750 82.493 C 244.842 82.565,245.207 82.676,245.562 82.740 C 245.917 82.804,246.330 82.921,246.479 83.000 C 246.628 83.079,247.050 83.219,247.417 83.310 C 247.783 83.401,248.496 83.599,249.000 83.750 C 249.504 83.901,250.217 84.099,250.583 84.190 C 250.950 84.281,251.365 84.416,251.505 84.490 C 251.646 84.564,252.021 84.676,252.339 84.739 C 252.657 84.801,253.067 84.913,253.250 84.986 C 253.433 85.060,253.996 85.238,254.500 85.383 C 255.004 85.528,255.792 85.756,256.250 85.890 C 256.708 86.024,257.343 86.188,257.661 86.255 C 257.979 86.321,258.354 86.432,258.495 86.500 C 258.635 86.569,259.200 86.756,259.750 86.915 C 260.300 87.075,260.900 87.265,261.083 87.338 C 261.267 87.412,261.717 87.547,262.083 87.640 C 262.450 87.733,263.162 87.932,263.667 88.083 C 264.171 88.234,264.883 88.432,265.250 88.524 C 265.617 88.615,266.039 88.754,266.188 88.833 C 266.337 88.912,266.749 89.030,267.104 89.094 C 267.460 89.158,267.825 89.269,267.917 89.340 C 268.008 89.412,268.383 89.524,268.750 89.590 C 269.117 89.656,269.492 89.769,269.583 89.840 C 269.675 89.912,270.050 90.024,270.417 90.090 C 270.783 90.156,271.158 90.266,271.250 90.333 C 271.342 90.401,271.717 90.511,272.083 90.577 C 272.450 90.643,272.825 90.755,272.917 90.827 C 273.008 90.898,273.383 91.011,273.750 91.077 C 274.117 91.143,274.492 91.255,274.583 91.327 C 274.675 91.398,275.040 91.509,275.396 91.573 C 275.751 91.637,276.163 91.754,276.312 91.833 C 276.461 91.913,276.921 92.062,277.333 92.166 C 277.746 92.270,278.383 92.430,278.750 92.522 C 279.117 92.614,279.539 92.754,279.688 92.833 C 279.837 92.912,280.249 93.030,280.604 93.094 C 280.960 93.158,281.325 93.267,281.417 93.336 C 281.508 93.406,281.902 93.515,282.291 93.579 C 282.680 93.643,283.035 93.755,283.080 93.829 C 283.126 93.902,283.499 94.012,283.911 94.074 C 284.322 94.135,284.697 94.248,284.744 94.324 C 284.791 94.400,285.166 94.512,285.577 94.574 C 285.989 94.635,286.369 94.757,286.423 94.843 C 286.476 94.929,286.663 95.000,286.837 95.000 C 287.114 95.000,288.233 95.319,289.000 95.616 C 289.137 95.669,289.362 95.733,289.500 95.757 C 289.737 95.798,290.179 95.926,292.333 96.580 C 292.837 96.733,293.587 96.936,294.000 97.030 C 294.412 97.125,294.821 97.269,294.908 97.351 C 294.995 97.433,295.235 97.500,295.440 97.500 C 295.646 97.500,295.857 97.571,295.911 97.657 C 295.964 97.743,296.344 97.865,296.756 97.926 C 297.167 97.988,297.545 98.105,297.595 98.186 C 297.645 98.267,297.819 98.333,297.982 98.333 C 298.321 98.333,300.452 98.949,300.851 99.163 C 300.997 99.241,301.467 99.358,301.894 99.422 C 302.321 99.486,302.709 99.600,302.756 99.676 C 302.803 99.752,303.178 99.865,303.589 99.926 C 304.001 99.988,304.374 100.098,304.420 100.171 C 304.465 100.245,304.820 100.357,305.209 100.421 C 305.598 100.485,305.992 100.596,306.083 100.667 C 306.175 100.738,306.568 100.848,306.957 100.912 C 307.347 100.976,307.702 101.089,307.747 101.162 C 307.792 101.235,308.166 101.345,308.577 101.407 C 308.989 101.469,309.364 101.581,309.411 101.657 C 309.458 101.733,309.833 101.845,310.244 101.907 C 310.656 101.969,311.031 102.081,311.077 102.157 C 311.124 102.233,311.499 102.345,311.911 102.407 C 312.322 102.469,312.698 102.583,312.746 102.661 C 312.794 102.738,313.209 102.854,313.667 102.917 C 314.125 102.980,314.539 103.095,314.587 103.173 C 314.635 103.250,315.011 103.365,315.423 103.426 C 315.834 103.488,316.208 103.598,316.253 103.671 C 316.298 103.745,316.653 103.857,317.043 103.921 C 317.432 103.985,317.825 104.094,317.917 104.164 C 318.008 104.233,318.383 104.344,318.750 104.410 C 319.117 104.476,319.492 104.589,319.583 104.661 C 319.675 104.732,320.105 104.843,320.538 104.905 C 320.971 104.968,321.364 105.081,321.411 105.157 C 321.458 105.233,321.833 105.345,322.244 105.407 C 322.656 105.469,323.033 105.586,323.083 105.667 C 323.133 105.748,323.511 105.865,323.923 105.926 C 324.334 105.988,324.712 106.105,324.762 106.186 C 324.814 106.271,340.825 106.333,362.427 106.333 L 400.000 106.333 400.000 67.417 C 400.000 43.894,399.939 28.500,399.847 28.500 C 399.763 28.500,399.575 28.454,399.430 28.399 C 399.285 28.343,399.167 28.381,399.167 28.482 "
       stroke="none"
       fill="#244454"
       fill-rule="evenodd" />
    <path
       id="path1"
       d="M230.000 78.845 C 229.496 79.010,228.919 79.150,228.718 79.156 C 228.517 79.162,228.311 79.235,228.259 79.319 C 228.207 79.403,227.847 79.524,227.457 79.588 C 227.068 79.652,226.675 79.762,226.583 79.833 C 226.492 79.904,226.154 80.012,225.833 80.074 C 225.512 80.136,225.100 80.250,224.917 80.329 C 224.733 80.407,224.283 80.547,223.917 80.640 C 223.550 80.733,222.838 80.932,222.333 81.083 C 221.829 81.234,221.117 81.434,220.750 81.526 C 220.383 81.619,219.933 81.758,219.750 81.835 C 219.129 82.095,217.112 82.667,216.815 82.667 C 216.653 82.667,216.479 82.732,216.430 82.811 C 216.381 82.891,216.036 83.005,215.663 83.065 C 215.290 83.124,214.857 83.237,214.701 83.316 C 214.545 83.394,214.004 83.577,213.500 83.722 C 212.996 83.867,212.021 84.147,211.333 84.343 C 210.646 84.540,209.762 84.806,209.369 84.934 C 208.976 85.062,208.544 85.167,208.409 85.167 C 208.273 85.167,208.032 85.234,207.873 85.317 C 207.714 85.399,207.133 85.598,206.583 85.759 C 206.033 85.920,205.283 86.146,204.917 86.261 C 204.550 86.376,203.800 86.595,203.250 86.748 C 202.700 86.901,202.063 87.090,201.833 87.168 C 201.604 87.245,200.854 87.472,200.167 87.672 C 199.479 87.871,198.595 88.139,198.203 88.267 C 197.810 88.395,197.345 88.500,197.171 88.500 C 196.996 88.500,196.809 88.571,196.756 88.657 C 196.703 88.743,196.322 88.865,195.911 88.926 C 195.499 88.988,195.126 89.098,195.080 89.171 C 195.035 89.245,194.680 89.357,194.291 89.421 C 193.902 89.485,193.508 89.596,193.417 89.667 C 193.325 89.738,192.932 89.848,192.543 89.912 C 192.153 89.976,191.795 90.093,191.747 90.172 C 191.699 90.250,191.322 90.365,190.911 90.426 C 190.499 90.488,190.126 90.598,190.080 90.671 C 190.035 90.745,189.680 90.857,189.291 90.921 C 188.902 90.985,188.508 91.096,188.417 91.167 C 188.325 91.238,187.932 91.348,187.543 91.412 C 187.153 91.476,186.798 91.589,186.753 91.662 C 186.708 91.735,186.321 91.847,185.894 91.911 C 185.467 91.975,184.997 92.093,184.851 92.172 C 184.704 92.251,184.021 92.478,183.333 92.675 C 182.646 92.873,181.762 93.139,181.369 93.267 C 180.976 93.395,180.512 93.500,180.337 93.500 C 180.163 93.500,179.979 93.565,179.930 93.645 C 179.881 93.724,179.536 93.838,179.163 93.898 C 178.790 93.958,178.357 94.071,178.201 94.149 C 177.924 94.288,177.397 94.448,174.833 95.172 C 174.146 95.366,173.396 95.588,173.167 95.665 C 172.938 95.743,171.963 96.039,171.000 96.324 C 170.037 96.609,168.837 96.964,168.333 97.113 C 167.829 97.263,167.117 97.479,166.750 97.594 C 166.383 97.709,165.633 97.931,165.083 98.086 C 164.533 98.242,163.762 98.474,163.369 98.601 C 162.976 98.729,162.512 98.833,162.337 98.833 C 162.163 98.833,161.976 98.904,161.923 98.990 C 161.869 99.077,161.489 99.198,161.077 99.260 C 160.666 99.321,160.291 99.434,160.244 99.510 C 160.197 99.585,159.822 99.698,159.411 99.760 C 158.999 99.821,158.626 99.932,158.580 100.005 C 158.535 100.078,158.180 100.190,157.791 100.254 C 157.402 100.319,157.008 100.428,156.917 100.497 C 156.825 100.566,156.460 100.676,156.104 100.740 C 155.749 100.804,155.337 100.921,155.188 101.000 C 155.039 101.079,154.617 101.219,154.250 101.310 C 153.883 101.401,153.171 101.599,152.667 101.750 C 152.162 101.901,151.450 102.099,151.083 102.190 C 150.717 102.281,150.295 102.421,150.146 102.500 C 149.996 102.579,149.584 102.696,149.229 102.760 C 148.874 102.824,148.508 102.932,148.417 103.000 C 148.325 103.068,147.950 103.177,147.583 103.243 C 147.217 103.309,146.842 103.423,146.750 103.496 C 146.658 103.569,146.246 103.706,145.833 103.801 C 145.421 103.897,144.671 104.098,144.167 104.249 C 143.662 104.401,142.950 104.600,142.583 104.693 C 142.217 104.786,141.767 104.925,141.583 105.002 C 141.400 105.080,140.688 105.304,140.000 105.501 C 139.313 105.697,138.563 105.923,138.333 106.003 C 138.104 106.083,137.767 106.181,137.583 106.221 C 137.400 106.262,179.325 106.301,230.750 106.308 C 311.879 106.320,324.195 106.290,323.833 106.083 C 323.604 105.952,323.244 105.842,323.033 105.839 C 322.823 105.836,322.430 105.720,322.161 105.580 C 321.892 105.441,321.463 105.303,321.207 105.273 C 320.952 105.244,320.586 105.135,320.395 105.033 C 320.203 104.930,319.775 104.816,319.443 104.780 C 319.112 104.743,318.742 104.631,318.621 104.531 C 318.500 104.431,318.125 104.318,317.787 104.281 C 317.450 104.244,317.078 104.137,316.962 104.043 C 316.845 103.949,316.487 103.836,316.167 103.791 C 315.846 103.745,315.358 103.631,315.083 103.535 C 314.231 103.240,312.758 102.808,312.583 102.802 C 312.492 102.798,312.060 102.655,311.625 102.484 C 311.190 102.312,310.833 102.209,310.833 102.255 C 310.833 102.300,310.562 102.224,310.230 102.086 C 309.898 101.947,309.480 101.833,309.302 101.833 C 309.124 101.833,308.814 101.743,308.614 101.633 C 308.256 101.436,308.083 101.383,307.417 101.263 C 307.233 101.230,306.764 101.085,306.373 100.941 C 305.982 100.797,305.607 100.675,305.539 100.668 C 305.472 100.662,305.117 100.576,304.750 100.478 C 304.383 100.379,304.046 100.299,304.000 100.299 C 303.954 100.300,303.767 100.219,303.583 100.119 C 303.400 100.019,303.137 99.920,303.000 99.899 C 302.371 99.804,301.742 99.633,301.227 99.418 C 300.919 99.289,300.667 99.214,300.667 99.251 C 300.667 99.288,300.348 99.203,299.958 99.062 C 299.375 98.851,297.987 98.441,297.250 98.263 C 296.681 98.125,294.033 97.304,293.417 97.073 C 293.233 97.005,293.008 96.935,292.917 96.919 C 292.254 96.800,291.645 96.600,291.568 96.476 C 291.518 96.394,291.409 96.370,291.325 96.422 C 291.242 96.473,291.012 96.429,290.814 96.323 C 290.616 96.217,290.221 96.095,289.935 96.052 C 289.650 96.009,289.199 95.867,288.933 95.737 C 288.667 95.607,288.292 95.500,288.099 95.499 C 287.907 95.498,287.544 95.391,287.293 95.259 C 287.041 95.128,286.559 94.977,286.222 94.923 C 285.885 94.870,285.528 94.760,285.429 94.679 C 285.331 94.598,284.956 94.485,284.596 94.429 C 284.236 94.372,283.858 94.256,283.755 94.171 C 283.652 94.085,283.308 93.987,282.991 93.952 C 282.673 93.917,282.251 93.801,282.051 93.694 C 281.852 93.587,281.510 93.500,281.293 93.500 C 281.075 93.500,280.751 93.390,280.574 93.255 C 280.396 93.121,280.041 93.008,279.786 93.005 C 279.531 93.002,279.051 92.887,278.719 92.748 C 278.387 92.609,277.886 92.455,277.604 92.406 C 277.322 92.356,277.052 92.263,277.004 92.199 C 276.956 92.136,276.830 92.067,276.723 92.047 C 276.617 92.027,276.310 91.971,276.040 91.924 C 275.771 91.876,275.286 91.727,274.963 91.592 C 274.640 91.457,274.336 91.387,274.287 91.436 C 274.238 91.485,273.974 91.409,273.702 91.268 C 273.429 91.127,272.985 90.973,272.715 90.925 C 272.444 90.878,271.911 90.728,271.528 90.593 C 271.146 90.458,270.833 90.378,270.833 90.416 C 270.833 90.453,270.581 90.378,270.273 90.249 C 269.965 90.120,269.534 89.980,269.315 89.937 C 269.096 89.895,268.597 89.744,268.206 89.603 C 267.815 89.462,267.440 89.341,267.373 89.335 C 267.305 89.329,266.950 89.238,266.583 89.134 C 266.217 89.030,265.770 88.917,265.591 88.885 C 265.411 88.852,265.224 88.771,265.174 88.704 C 265.124 88.638,264.971 88.571,264.833 88.555 C 264.696 88.540,264.133 88.402,263.583 88.249 C 263.033 88.096,262.508 87.952,262.417 87.931 C 262.066 87.848,260.712 87.442,259.833 87.157 C 259.329 86.993,258.504 86.738,258.000 86.589 C 257.496 86.440,256.971 86.272,256.833 86.217 C 256.696 86.161,256.508 86.105,256.417 86.091 C 255.726 85.990,254.981 85.770,254.903 85.645 C 254.852 85.562,254.742 85.537,254.659 85.588 C 254.575 85.640,254.345 85.595,254.147 85.490 C 253.949 85.384,253.555 85.260,253.271 85.216 C 252.986 85.171,252.550 85.029,252.302 84.900 C 252.053 84.772,251.677 84.666,251.467 84.666 C 251.256 84.665,250.869 84.553,250.606 84.416 C 250.343 84.279,249.982 84.167,249.803 84.167 C 249.624 84.167,249.323 84.083,249.133 83.982 C 248.943 83.880,248.554 83.761,248.269 83.717 C 247.983 83.674,247.525 83.534,247.250 83.408 C 246.975 83.281,246.491 83.134,246.173 83.080 C 245.856 83.027,245.519 82.919,245.423 82.841 C 245.328 82.762,244.956 82.652,244.596 82.595 C 244.236 82.539,243.858 82.423,243.755 82.337 C 243.652 82.252,243.285 82.151,242.939 82.113 C 242.593 82.075,242.225 81.959,242.122 81.855 C 242.018 81.751,241.732 81.667,241.487 81.667 C 241.242 81.667,240.780 81.558,240.460 81.424 C 240.141 81.291,239.701 81.142,239.482 81.094 C 238.649 80.909,237.323 80.513,237.124 80.389 C 237.010 80.318,236.842 80.245,236.750 80.228 C 236.658 80.211,236.343 80.153,236.050 80.098 C 235.757 80.043,235.307 79.917,235.050 79.817 C 234.793 79.718,234.397 79.601,234.170 79.558 C 233.943 79.515,233.718 79.428,233.670 79.365 C 233.622 79.302,233.471 79.236,233.333 79.219 C 232.841 79.159,232.204 78.998,231.566 78.774 C 230.993 78.572,230.810 78.580,230.000 78.845 "
       stroke="none"
       fill="#5c8c84"
       fill-rule="evenodd" />
    <path
       id="path2"
       d="M-0.000 58.148 L 0.000 106.333 68.502 106.333 C 111.320 106.333,137.113 106.274,137.294 106.175 C 137.453 106.089,138.146 105.858,138.833 105.663 C 139.521 105.468,140.271 105.243,140.500 105.163 C 140.729 105.084,141.517 104.860,142.250 104.667 C 142.983 104.473,143.771 104.250,144.000 104.170 C 144.229 104.090,144.979 103.864,145.667 103.667 C 146.354 103.470,147.104 103.245,147.333 103.167 C 147.563 103.089,148.313 102.864,149.000 102.667 C 149.688 102.470,150.438 102.245,150.667 102.168 C 150.896 102.090,151.533 101.900,152.083 101.746 C 152.633 101.592,153.421 101.360,153.833 101.232 C 154.246 101.103,156.496 100.437,158.833 99.750 C 161.171 99.063,163.421 98.397,163.833 98.268 C 164.246 98.140,165.033 97.908,165.583 97.754 C 166.133 97.600,166.771 97.410,167.000 97.332 C 167.229 97.255,167.979 97.030,168.667 96.833 C 169.354 96.636,170.104 96.411,170.333 96.333 C 170.563 96.255,171.350 96.027,172.083 95.828 C 172.817 95.629,173.567 95.402,173.750 95.325 C 173.933 95.247,174.683 95.026,175.417 94.833 C 176.150 94.640,176.938 94.416,177.167 94.337 C 177.396 94.257,178.146 94.030,178.833 93.833 C 179.521 93.636,180.271 93.411,180.500 93.333 C 180.729 93.255,181.479 93.029,182.167 92.830 C 182.854 92.631,183.642 92.400,183.917 92.316 C 185.754 91.754,198.833 87.861,199.583 87.653 C 199.858 87.576,200.458 87.402,200.917 87.265 C 201.375 87.128,202.144 86.900,202.625 86.758 C 203.106 86.616,203.875 86.388,204.333 86.250 C 204.792 86.113,205.542 85.888,206.000 85.750 C 206.458 85.613,207.227 85.382,207.708 85.238 C 208.190 85.094,208.883 84.900,209.250 84.807 C 209.617 84.714,210.067 84.577,210.250 84.503 C 210.433 84.429,211.183 84.205,211.917 84.005 C 212.650 83.806,213.438 83.579,213.667 83.500 C 213.896 83.422,214.646 83.197,215.333 83.000 C 216.021 82.803,216.771 82.578,217.000 82.500 C 217.229 82.422,217.979 82.197,218.667 82.000 C 219.354 81.803,220.104 81.583,220.333 81.511 C 220.828 81.356,221.358 81.198,226.583 79.651 C 228.783 78.999,230.658 78.388,230.750 78.292 C 230.863 78.174,230.853 78.154,230.720 78.228 C 230.612 78.289,230.476 78.263,230.418 78.169 C 230.361 78.076,230.146 78.000,229.940 78.000 C 229.735 78.000,229.495 77.931,229.408 77.846 C 229.273 77.715,227.871 77.366,227.208 77.299 C 227.094 77.287,227.000 77.215,227.000 77.139 C 227.000 77.063,226.825 77.000,226.611 77.000 C 226.397 77.000,226.167 76.945,226.099 76.877 C 226.032 76.810,225.888 76.749,225.780 76.743 C 225.458 76.725,224.596 76.463,224.417 76.329 C 224.325 76.261,223.912 76.150,223.500 76.083 C 223.088 76.017,222.675 75.904,222.583 75.834 C 222.492 75.763,222.154 75.652,221.833 75.587 C 221.164 75.452,219.706 75.011,219.327 74.830 C 219.186 74.763,218.755 74.655,218.369 74.589 C 217.984 74.524,217.630 74.410,217.584 74.334 C 217.538 74.259,217.125 74.146,216.666 74.083 C 216.208 74.020,215.833 73.908,215.833 73.833 C 215.833 73.759,215.458 73.646,215.000 73.583 C 214.542 73.520,214.128 73.405,214.080 73.327 C 214.032 73.250,213.656 73.136,213.246 73.074 C 212.836 73.013,212.500 72.905,212.500 72.836 C 212.500 72.766,212.125 72.660,211.667 72.599 C 211.208 72.538,210.833 72.421,210.833 72.340 C 210.833 72.258,210.421 72.139,209.917 72.076 C 209.413 72.013,209.000 71.898,209.000 71.820 C 209.000 71.742,208.625 71.628,208.167 71.568 C 207.708 71.507,207.333 71.399,207.333 71.328 C 207.333 71.256,206.958 71.146,206.500 71.083 C 206.042 71.020,205.667 70.908,205.667 70.833 C 205.667 70.759,205.292 70.646,204.833 70.583 C 204.375 70.520,204.000 70.406,204.000 70.330 C 204.000 70.253,203.588 70.139,203.083 70.076 C 202.579 70.013,202.167 69.902,202.167 69.830 C 202.167 69.757,201.792 69.646,201.333 69.583 C 200.875 69.520,200.500 69.410,200.500 69.339 C 200.500 69.268,200.197 69.161,199.826 69.102 C 199.455 69.042,199.024 68.930,198.868 68.853 C 198.317 68.579,197.450 68.345,197.309 68.432 C 197.231 68.480,197.167 68.440,197.167 68.343 C 197.167 68.246,197.045 68.167,196.897 68.167 C 196.598 68.167,195.085 67.704,194.615 67.469 C 194.448 67.385,194.167 67.364,193.990 67.420 C 193.808 67.478,193.667 67.445,193.667 67.345 C 193.667 67.247,193.521 67.167,193.343 67.167 C 193.165 67.167,192.971 67.087,192.911 66.990 C 192.851 66.893,192.640 66.829,192.442 66.848 C 192.245 66.867,191.933 66.827,191.750 66.759 C 191.567 66.691,191.304 66.592,191.167 66.540 C 191.029 66.488,190.879 66.432,190.833 66.415 C 190.787 66.398,190.431 66.326,190.042 66.254 C 189.652 66.183,189.333 66.063,189.333 65.989 C 189.333 65.915,188.977 65.801,188.542 65.737 C 188.106 65.673,187.713 65.568,187.667 65.504 C 187.621 65.440,187.208 65.305,186.750 65.204 C 185.543 64.939,184.429 64.606,184.333 64.481 C 184.287 64.422,183.856 64.320,183.375 64.255 C 182.894 64.189,182.500 64.072,182.500 63.995 C 182.500 63.917,182.144 63.801,181.708 63.737 C 181.273 63.673,180.879 63.571,180.833 63.510 C 180.787 63.449,180.412 63.315,180.000 63.212 C 178.124 62.746,177.732 62.634,177.466 62.492 C 177.309 62.408,176.878 62.291,176.507 62.232 C 176.137 62.173,175.833 62.064,175.833 61.991 C 175.833 61.917,175.421 61.806,174.917 61.743 C 174.412 61.680,174.000 61.570,174.000 61.500 C 174.000 61.429,173.662 61.321,173.250 61.259 C 172.837 61.197,172.500 61.086,172.500 61.011 C 172.500 60.937,172.128 60.827,171.674 60.767 C 171.219 60.706,170.803 60.586,170.750 60.500 C 170.697 60.414,170.281 60.294,169.826 60.233 C 169.372 60.173,169.000 60.065,169.000 59.994 C 169.000 59.923,168.625 59.813,168.167 59.750 C 167.708 59.687,167.333 59.574,167.333 59.500 C 167.333 59.426,166.958 59.313,166.500 59.250 C 166.042 59.187,165.630 59.076,165.586 59.004 C 165.541 58.931,165.166 58.821,164.752 58.759 C 164.338 58.697,164.000 58.581,164.000 58.502 C 164.000 58.422,163.587 58.306,163.083 58.243 C 162.579 58.180,162.167 58.062,162.167 57.981 C 162.167 57.900,161.984 57.833,161.760 57.833 C 161.536 57.833,161.303 57.753,161.243 57.655 C 161.182 57.557,161.030 57.517,160.905 57.565 C 160.780 57.613,160.633 57.580,160.579 57.493 C 160.525 57.405,160.302 57.333,160.083 57.333 C 159.865 57.333,159.641 57.261,159.586 57.171 C 159.531 57.082,159.114 56.960,158.660 56.900 C 158.205 56.840,157.833 56.716,157.833 56.626 C 157.833 56.535,157.683 56.500,157.500 56.548 C 157.317 56.596,157.167 56.567,157.167 56.484 C 157.167 56.401,156.984 56.333,156.760 56.333 C 156.536 56.333,156.310 56.264,156.257 56.178 C 156.204 56.093,155.975 56.057,155.747 56.098 C 155.520 56.139,155.333 56.097,155.333 56.003 C 155.333 55.910,155.188 55.833,155.010 55.833 C 154.832 55.833,154.644 55.765,154.593 55.682 C 154.542 55.599,154.125 55.480,153.666 55.417 C 153.208 55.354,152.833 55.249,152.833 55.184 C 152.833 55.119,152.477 54.981,152.042 54.878 C 150.274 54.459,149.579 54.262,149.500 54.157 C 149.454 54.096,149.060 53.994,148.625 53.930 C 148.190 53.865,147.833 53.748,147.833 53.668 C 147.833 53.589,147.421 53.472,146.917 53.409 C 146.412 53.346,146.000 53.235,146.000 53.162 C 146.000 53.089,145.681 52.977,145.292 52.912 C 144.902 52.848,144.508 52.738,144.417 52.667 C 144.325 52.596,143.932 52.485,143.543 52.421 C 143.153 52.357,142.797 52.243,142.751 52.168 C 142.704 52.093,142.291 51.980,141.833 51.917 C 141.375 51.854,141.000 51.741,141.000 51.667 C 141.000 51.592,140.625 51.480,140.167 51.417 C 139.709 51.354,139.296 51.241,139.249 51.166 C 139.203 51.090,138.847 50.976,138.457 50.912 C 138.068 50.848,137.675 50.738,137.583 50.667 C 137.492 50.596,137.098 50.485,136.708 50.421 C 136.319 50.357,136.000 50.241,136.000 50.164 C 136.000 50.087,135.587 49.972,135.083 49.909 C 134.579 49.846,134.167 49.731,134.167 49.653 C 134.167 49.575,133.792 49.462,133.333 49.401 C 132.875 49.340,132.500 49.232,132.500 49.161 C 132.500 49.090,132.125 48.980,131.667 48.917 C 131.209 48.854,130.797 48.743,130.752 48.670 C 130.707 48.598,130.332 48.488,129.919 48.426 C 129.505 48.364,129.167 48.250,129.167 48.172 C 129.167 48.095,128.773 47.978,128.292 47.912 C 127.810 47.847,127.379 47.746,127.333 47.688 C 127.216 47.540,125.594 47.000,125.267 47.000 C 125.118 47.000,124.865 46.930,124.706 46.845 C 124.404 46.684,123.662 46.456,121.417 45.833 C 120.683 45.630,119.801 45.359,119.455 45.232 C 119.109 45.104,118.687 45.000,118.516 45.000 C 118.345 45.000,117.990 44.888,117.727 44.751 C 117.465 44.614,117.086 44.502,116.885 44.501 C 116.684 44.500,116.469 44.418,116.407 44.318 C 116.345 44.217,116.116 44.169,115.897 44.211 C 115.679 44.253,115.500 44.223,115.500 44.144 C 115.500 44.065,115.354 44.000,115.177 44.000 C 114.999 44.000,114.813 43.935,114.764 43.855 C 114.714 43.776,114.301 43.661,113.844 43.600 C 113.387 43.540,112.971 43.422,112.920 43.338 C 112.868 43.254,112.489 43.135,112.077 43.074 C 111.666 43.012,111.291 42.900,111.244 42.824 C 111.197 42.748,110.804 42.634,110.371 42.570 C 109.938 42.506,109.546 42.404,109.500 42.343 C 109.421 42.238,108.726 42.041,106.958 41.622 C 106.523 41.519,106.167 41.381,106.167 41.316 C 106.167 41.251,105.792 41.146,105.334 41.083 C 104.875 41.020,104.460 40.903,104.410 40.823 C 104.360 40.742,103.948 40.627,103.493 40.567 C 103.039 40.506,102.667 40.400,102.667 40.331 C 102.667 40.261,102.329 40.154,101.917 40.092 C 101.504 40.030,101.167 39.919,101.167 39.845 C 101.167 39.770,100.795 39.660,100.340 39.600 C 99.886 39.540,99.473 39.425,99.423 39.344 C 99.374 39.264,98.958 39.146,98.500 39.083 C 98.042 39.020,97.667 38.906,97.667 38.830 C 97.667 38.753,97.254 38.639,96.750 38.576 C 96.246 38.513,95.833 38.402,95.833 38.329 C 95.833 38.256,95.515 38.143,95.125 38.079 C 94.735 38.015,94.342 37.904,94.250 37.833 C 94.158 37.762,93.765 37.652,93.375 37.588 C 92.985 37.523,92.667 37.408,92.667 37.331 C 92.667 37.254,92.254 37.139,91.750 37.076 C 91.246 37.013,90.833 36.904,90.833 36.833 C 90.833 36.726,90.117 36.511,89.417 36.409 C 89.325 36.395,89.138 36.340,89.000 36.285 C 88.272 35.996,87.115 35.667,86.828 35.667 C 86.647 35.667,86.500 35.596,86.500 35.510 C 86.500 35.424,86.144 35.302,85.708 35.239 C 85.273 35.176,84.824 35.051,84.710 34.960 C 84.597 34.870,84.391 34.840,84.252 34.893 C 84.113 34.946,84.000 34.917,84.000 34.828 C 84.000 34.739,83.854 34.667,83.677 34.667 C 83.499 34.667,83.311 34.599,83.260 34.516 C 83.208 34.433,82.791 34.313,82.333 34.250 C 81.875 34.187,81.500 34.067,81.500 33.984 C 81.500 33.901,81.444 33.846,81.375 33.861 C 81.133 33.916,79.914 33.621,79.710 33.460 C 79.597 33.370,79.391 33.340,79.252 33.393 C 79.113 33.446,79.000 33.417,79.000 33.328 C 79.000 33.239,78.775 33.167,78.500 33.167 C 78.225 33.167,78.000 33.100,78.000 33.019 C 78.000 32.938,77.664 32.821,77.254 32.759 C 76.844 32.698,76.468 32.584,76.420 32.506 C 76.372 32.428,75.958 32.313,75.500 32.250 C 75.042 32.187,74.628 32.072,74.580 31.994 C 74.532 31.916,74.156 31.802,73.746 31.741 C 73.336 31.679,73.000 31.568,73.000 31.493 C 73.000 31.418,72.587 31.306,72.083 31.243 C 71.579 31.180,71.167 31.070,71.167 31.000 C 71.167 30.929,70.831 30.821,70.421 30.759 C 70.010 30.698,69.635 30.584,69.587 30.506 C 69.539 30.428,69.125 30.313,68.666 30.250 C 68.208 30.187,67.833 30.074,67.833 30.000 C 67.833 29.926,67.458 29.813,67.000 29.750 C 66.542 29.687,66.126 29.570,66.077 29.489 C 66.027 29.409,65.614 29.294,65.160 29.233 C 64.705 29.173,64.333 29.063,64.333 28.989 C 64.333 28.914,63.996 28.803,63.583 28.741 C 63.171 28.679,62.833 28.569,62.833 28.497 C 62.833 28.424,62.458 28.313,62.000 28.250 C 61.542 28.187,61.167 28.073,61.167 27.996 C 61.167 27.920,60.754 27.806,60.250 27.743 C 59.746 27.680,59.333 27.566,59.333 27.491 C 59.333 27.416,58.996 27.303,58.583 27.241 C 58.171 27.179,57.833 27.071,57.833 27.000 C 57.833 26.930,57.421 26.820,56.917 26.757 C 56.413 26.694,56.000 26.590,56.000 26.526 C 56.000 26.462,55.644 26.316,55.208 26.201 C 54.773 26.087,54.154 25.918,53.833 25.825 C 53.512 25.733,53.137 25.629,53.000 25.595 C 52.862 25.562,52.303 25.376,51.756 25.184 C 51.209 24.991,50.603 24.833,50.409 24.833 C 50.214 24.833,49.999 24.777,49.931 24.708 C 49.862 24.640,49.756 24.577,49.694 24.570 C 49.360 24.529,48.536 24.285,48.224 24.134 C 48.027 24.039,47.783 24.011,47.683 24.074 C 47.582 24.136,47.500 24.115,47.500 24.029 C 47.500 23.942,47.294 23.834,47.042 23.789 C 46.334 23.663,43.451 22.829,43.132 22.658 C 42.976 22.575,42.543 22.458,42.170 22.398 C 41.798 22.338,41.455 22.229,41.409 22.154 C 41.363 22.080,40.990 21.969,40.579 21.907 C 40.169 21.846,39.833 21.736,39.833 21.663 C 39.833 21.591,39.458 21.480,39.000 21.417 C 38.542 21.354,38.167 21.247,38.167 21.179 C 38.167 21.111,38.073 21.047,37.958 21.037 C 37.196 20.968,36.333 20.770,36.333 20.664 C 36.333 20.594,35.985 20.486,35.559 20.422 C 35.133 20.358,34.664 20.241,34.517 20.163 C 34.118 19.949,31.988 19.333,31.648 19.333 C 31.486 19.333,31.309 19.263,31.256 19.176 C 31.203 19.090,30.822 18.969,30.411 18.907 C 29.999 18.845,29.623 18.731,29.574 18.652 C 29.526 18.574,29.114 18.460,28.660 18.400 C 28.205 18.340,27.833 18.234,27.833 18.164 C 27.833 18.095,27.498 17.987,27.087 17.926 C 26.677 17.864,26.302 17.750,26.254 17.673 C 26.206 17.595,25.791 17.480,25.333 17.417 C 24.875 17.354,24.500 17.244,24.500 17.172 C 24.500 17.101,24.125 16.993,23.667 16.932 C 23.208 16.872,22.833 16.755,22.833 16.673 C 22.833 16.591,22.421 16.472,21.917 16.409 C 21.412 16.346,21.000 16.229,21.000 16.147 C 21.000 16.066,20.831 15.997,20.625 15.994 C 20.419 15.991,19.612 15.767,18.833 15.495 C 18.054 15.224,17.248 15.002,17.042 15.001 C 16.835 15.001,16.667 14.925,16.667 14.833 C 16.667 14.742,16.610 14.679,16.542 14.694 C 16.348 14.736,15.451 14.498,15.115 14.315 C 14.948 14.225,14.667 14.197,14.490 14.253 C 14.308 14.311,14.167 14.278,14.167 14.178 C 14.167 14.080,14.021 14.000,13.843 14.000 C 13.665 14.000,13.476 13.930,13.423 13.844 C 13.370 13.758,13.197 13.685,13.038 13.682 C 12.486 13.672,11.667 13.461,11.667 13.330 C 11.667 13.257,11.292 13.146,10.834 13.083 C 10.375 13.020,9.962 12.907,9.916 12.832 C 9.870 12.757,9.513 12.643,9.124 12.579 C 8.735 12.515,8.324 12.387,8.210 12.296 C 8.097 12.204,7.891 12.173,7.752 12.226 C 7.613 12.279,7.500 12.250,7.500 12.161 C 7.500 12.073,7.313 12.000,7.083 12.000 C 6.854 12.000,6.667 11.934,6.667 11.853 C 6.667 11.771,6.254 11.654,5.750 11.591 C 5.246 11.528,4.833 11.411,4.833 11.332 C 4.833 11.252,4.477 11.136,4.042 11.073 C 3.606 11.010,3.175 10.899,3.083 10.827 C 2.992 10.755,2.617 10.643,2.250 10.577 C 1.883 10.511,1.508 10.398,1.417 10.327 C 1.325 10.255,0.969 10.144,0.625 10.080 L -0.000 9.963 -0.000 58.148 "
       stroke="none"
       fill="#a4dba4"
       fill-rule="evenodd" />
    <path
       id="path3"
       d="M230.915 78.169 C 230.857 78.263,230.729 78.288,230.629 78.227 C 230.528 78.164,230.496 78.192,230.556 78.289 C 230.622 78.395,230.227 78.582,229.554 78.764 C 228.943 78.929,228.529 79.093,228.632 79.127 C 228.982 79.244,230.865 78.586,231.022 78.292 C 231.187 77.984,231.094 77.879,230.915 78.169 M227.417 79.425 L 226.750 79.658 227.417 79.566 C 227.783 79.515,228.155 79.405,228.242 79.320 C 228.456 79.112,228.231 79.141,227.417 79.425 M225.750 79.925 L 225.083 80.158 225.750 80.066 C 226.117 80.015,226.488 79.905,226.575 79.820 C 226.789 79.612,226.564 79.641,225.750 79.925 M224.083 80.420 L 223.417 80.647 224.083 80.553 C 224.450 80.502,224.821 80.394,224.908 80.313 C 225.124 80.114,224.894 80.143,224.083 80.420 M222.533 80.831 C 222.231 80.903,221.931 81.016,221.867 81.083 C 221.720 81.237,222.829 81.012,223.167 80.819 C 223.463 80.650,223.283 80.654,222.533 80.831 M220.867 81.331 C 220.564 81.403,220.264 81.516,220.200 81.583 C 220.053 81.737,221.162 81.512,221.500 81.319 C 221.797 81.150,221.616 81.154,220.867 81.331 M219.042 81.853 C 218.744 81.939,218.500 82.051,218.500 82.101 C 218.500 82.235,219.555 81.992,219.742 81.816 C 219.935 81.633,219.773 81.642,219.042 81.853 M217.357 82.358 C 217.049 82.446,216.835 82.557,216.882 82.604 C 216.977 82.699,218.333 82.363,218.333 82.244 C 218.333 82.134,218.001 82.172,217.357 82.358 M215.708 82.853 C 215.410 82.939,215.167 83.043,215.167 83.084 C 215.167 83.204,216.235 82.969,216.408 82.811 C 216.603 82.633,216.435 82.643,215.708 82.853 M214.042 83.353 C 213.744 83.439,213.500 83.543,213.500 83.584 C 213.500 83.704,214.568 83.469,214.742 83.311 C 214.937 83.133,214.769 83.143,214.042 83.353 M212.250 83.920 L 211.583 84.147 212.250 84.052 C 212.953 83.952,213.659 83.669,213.167 83.685 C 213.029 83.689,212.617 83.795,212.250 83.920 M210.833 84.287 C 210.604 84.328,210.342 84.436,210.250 84.526 C 210.061 84.712,210.920 84.546,211.333 84.316 C 211.596 84.170,211.514 84.165,210.833 84.287 M208.857 84.858 C 208.549 84.946,208.335 85.057,208.382 85.104 C 208.477 85.199,209.833 84.863,209.833 84.744 C 209.833 84.634,209.501 84.672,208.857 84.858 M207.083 85.407 C 206.717 85.531,205.854 85.795,205.167 85.995 C 204.479 86.195,203.729 86.422,203.500 86.499 C 203.271 86.577,202.633 86.765,202.083 86.918 C 201.533 87.071,200.783 87.294,200.417 87.414 C 200.050 87.533,199.124 87.805,198.358 88.018 C 197.592 88.231,197.049 88.433,197.150 88.467 C 197.309 88.520,198.898 88.099,200.167 87.667 C 200.396 87.589,201.146 87.364,201.833 87.167 C 202.521 86.970,203.271 86.750,203.500 86.678 C 203.729 86.606,204.367 86.416,204.917 86.256 C 205.467 86.096,206.219 85.860,206.589 85.732 C 206.959 85.605,207.385 85.500,207.537 85.500 C 207.689 85.500,207.860 85.425,207.917 85.333 C 208.049 85.119,207.900 85.132,207.083 85.407 M195.833 88.750 C 195.421 88.871,194.746 89.088,194.333 89.232 L 193.583 89.493 194.250 89.398 C 194.617 89.346,194.992 89.244,195.083 89.171 C 195.175 89.097,195.568 88.985,195.957 88.921 C 196.347 88.857,196.707 88.736,196.759 88.652 C 196.876 88.463,196.772 88.474,195.833 88.750 M192.583 89.753 L 191.917 89.980 192.583 89.887 C 192.950 89.835,193.321 89.727,193.408 89.646 C 193.624 89.447,193.394 89.477,192.583 89.753 M190.917 90.258 L 190.250 90.491 190.917 90.399 C 191.283 90.349,191.655 90.238,191.742 90.154 C 191.956 89.946,191.731 89.974,190.917 90.258 M189.250 90.758 L 188.583 90.991 189.250 90.899 C 189.617 90.849,189.988 90.738,190.075 90.654 C 190.289 90.446,190.064 90.474,189.250 90.758 M187.583 91.253 L 186.917 91.480 187.583 91.387 C 187.950 91.335,188.321 91.227,188.408 91.146 C 188.624 90.947,188.394 90.977,187.583 91.253 M185.917 91.753 L 185.250 91.980 185.917 91.887 C 186.283 91.835,186.655 91.727,186.742 91.646 C 186.957 91.447,186.727 91.477,185.917 91.753 M184.367 92.164 C 184.064 92.236,183.764 92.350,183.700 92.417 C 183.534 92.591,184.717 92.329,184.908 92.149 C 184.995 92.067,185.033 92.008,184.992 92.017 C 184.950 92.026,184.669 92.093,184.367 92.164 M182.523 92.691 C 182.215 92.780,182.002 92.890,182.048 92.937 C 182.144 93.033,183.500 92.696,183.500 92.577 C 183.500 92.467,183.168 92.506,182.523 92.691 M180.857 93.191 C 180.549 93.280,180.335 93.390,180.382 93.437 C 180.477 93.533,181.833 93.196,181.833 93.077 C 181.833 92.967,181.501 93.006,180.857 93.191 M179.208 93.686 C 178.910 93.772,178.667 93.876,178.667 93.917 C 178.667 94.037,179.735 93.803,179.908 93.645 C 180.103 93.466,179.935 93.477,179.208 93.686 M177.542 94.186 C 177.244 94.272,177.000 94.376,177.000 94.417 C 177.000 94.537,178.068 94.303,178.242 94.145 C 178.437 93.966,178.269 93.977,177.542 94.186 M175.750 94.753 L 175.083 94.980 175.750 94.885 C 176.453 94.785,177.159 94.503,176.667 94.518 C 176.529 94.522,176.117 94.628,175.750 94.753 M174.250 95.119 C 174.067 95.163,173.842 95.272,173.750 95.361 C 173.560 95.546,174.424 95.377,174.833 95.149 C 175.125 94.987,174.856 94.973,174.250 95.119 M172.333 95.761 L 171.750 95.997 172.333 95.896 C 172.995 95.782,173.605 95.504,173.167 95.518 C 173.029 95.522,172.654 95.631,172.333 95.761 M170.583 96.241 C 170.217 96.364,169.354 96.629,168.667 96.828 C 167.979 97.028,167.229 97.255,167.000 97.332 C 166.771 97.410,166.133 97.600,165.583 97.754 C 164.575 98.037,163.505 98.356,162.583 98.648 C 162.308 98.736,162.212 98.813,162.369 98.820 C 162.526 98.827,162.976 98.729,163.369 98.601 C 163.762 98.474,164.533 98.242,165.083 98.086 C 165.633 97.931,166.383 97.709,166.750 97.594 C 167.552 97.342,168.825 96.962,170.458 96.486 C 171.123 96.293,171.667 96.104,171.667 96.067 C 171.667 95.947,171.263 96.011,170.583 96.241 M161.083 99.092 L 160.417 99.325 161.083 99.233 C 161.450 99.182,161.821 99.072,161.908 98.987 C 162.123 98.779,161.897 98.807,161.083 99.092 M159.417 99.592 L 158.750 99.825 159.417 99.733 C 159.783 99.682,160.155 99.572,160.242 99.487 C 160.456 99.279,160.231 99.307,159.417 99.592 M157.750 100.092 L 157.083 100.325 157.750 100.233 C 158.117 100.182,158.488 100.072,158.575 99.987 C 158.789 99.779,158.564 99.807,157.750 100.092 M156.083 100.586 L 155.417 100.813 156.083 100.720 C 156.450 100.668,156.821 100.560,156.908 100.480 C 157.124 100.280,156.894 100.310,156.083 100.586 M154.533 100.998 C 154.231 101.069,153.931 101.181,153.867 101.246 C 153.697 101.416,155.053 101.154,155.242 100.980 C 155.426 100.809,155.317 100.812,154.533 100.998 M152.867 101.498 C 152.564 101.569,152.264 101.683,152.200 101.750 C 152.053 101.904,153.162 101.678,153.500 101.486 C 153.797 101.317,153.616 101.320,152.867 101.498 M151.023 102.025 C 150.715 102.113,150.502 102.224,150.548 102.270 C 150.644 102.366,152.000 102.030,152.000 101.910 C 152.000 101.800,151.668 101.839,151.023 102.025 M149.375 102.520 C 149.077 102.606,148.833 102.718,148.833 102.768 C 148.833 102.901,149.888 102.659,150.075 102.482 C 150.269 102.300,150.107 102.309,149.375 102.520 M147.708 103.020 C 147.410 103.106,147.167 103.210,147.167 103.251 C 147.167 103.371,148.235 103.136,148.408 102.978 C 148.603 102.800,148.435 102.810,147.708 103.020 M146.042 103.520 C 145.744 103.606,145.500 103.718,145.500 103.768 C 145.500 103.901,146.555 103.659,146.742 103.482 C 146.935 103.300,146.773 103.309,146.042 103.520 M144.357 104.025 C 144.049 104.113,143.828 104.217,143.866 104.255 C 143.950 104.339,145.167 104.015,145.167 103.909 C 145.167 103.811,145.034 103.830,144.357 104.025 M142.583 104.590 C 141.923 104.818,141.922 104.819,142.500 104.724 C 142.821 104.672,143.196 104.564,143.333 104.486 C 143.700 104.277,143.346 104.326,142.583 104.590 M140.875 105.020 C 140.577 105.106,140.333 105.218,140.333 105.268 C 140.333 105.401,141.388 105.159,141.575 104.982 C 141.769 104.800,141.607 104.809,140.875 105.020 M139.190 105.525 C 138.882 105.613,138.668 105.724,138.715 105.770 C 138.810 105.866,140.167 105.530,140.167 105.410 C 140.167 105.300,139.834 105.339,139.190 105.525 M137.750 105.952 C 137.567 105.996,137.351 106.094,137.271 106.170 C 137.191 106.246,137.404 106.245,137.743 106.168 C 138.082 106.092,138.404 105.985,138.458 105.931 C 138.567 105.822,138.254 105.831,137.750 105.952 "
       stroke="none"
       fill="#729893"
       fill-rule="evenodd" />
    <path
       id="path4"
       d="M373.477 35.982 C 373.637 36.083,373.648 36.153,373.515 36.217 C 373.385 36.279,373.389 36.296,373.527 36.269 C 373.861 36.203,373.885 35.833,373.556 35.836 C 373.319 35.838,373.302 35.871,373.477 35.982 M365.409 38.345 C 365.349 38.443,365.138 38.588,364.941 38.668 C 364.697 38.766,364.668 38.816,364.849 38.823 C 364.995 38.829,365.251 38.683,365.417 38.500 C 365.583 38.317,365.674 38.167,365.619 38.167 C 365.564 38.167,365.470 38.247,365.409 38.345 M300.222 57.750 C 300.222 57.893,300.290 57.987,300.374 57.959 C 300.457 57.931,300.525 57.837,300.525 57.750 C 300.525 57.663,300.457 57.569,300.374 57.541 C 300.290 57.513,300.222 57.607,300.222 57.750 M267.500 67.318 C 267.500 67.401,267.331 67.437,267.125 67.399 C 266.919 67.361,266.844 67.374,266.959 67.429 C 267.075 67.484,267.122 67.605,267.064 67.698 C 267.003 67.797,267.106 67.788,267.313 67.677 C 267.625 67.510,267.807 67.167,267.583 67.167 C 267.537 67.167,267.500 67.235,267.500 67.318 M231.901 78.807 C 231.953 78.892,232.224 78.995,232.503 79.036 C 233.113 79.126,232.944 78.922,232.278 78.765 C 232.002 78.700,231.845 78.718,231.901 78.807 M233.667 79.345 C 233.667 79.430,233.811 79.500,233.986 79.500 C 234.162 79.500,234.443 79.549,234.611 79.610 C 234.779 79.670,234.871 79.668,234.814 79.605 C 234.631 79.399,233.667 79.181,233.667 79.345 M235.333 79.862 C 235.333 79.938,235.477 80.000,235.653 80.000 C 235.829 80.000,236.104 80.050,236.264 80.112 C 236.447 80.182,236.515 80.159,236.446 80.048 C 236.313 79.833,235.333 79.670,235.333 79.862 M237.120 80.340 C 237.332 80.531,238.205 80.697,238.099 80.526 C 238.047 80.441,237.776 80.338,237.497 80.297 C 237.218 80.256,237.048 80.276,237.120 80.340 M238.786 80.840 C 238.999 81.031,239.871 81.197,239.766 81.026 C 239.714 80.941,239.442 80.838,239.163 80.797 C 238.884 80.756,238.715 80.776,238.786 80.840 M240.453 81.340 C 240.666 81.531,241.538 81.697,241.433 81.526 C 241.380 81.441,241.109 81.338,240.830 81.297 C 240.551 81.256,240.381 81.276,240.453 81.340 M242.067 81.807 C 242.120 81.892,242.391 81.995,242.670 82.036 C 243.280 82.126,243.111 81.922,242.444 81.765 C 242.169 81.700,242.012 81.718,242.067 81.807 M243.734 82.307 C 243.786 82.392,244.058 82.495,244.337 82.536 C 244.946 82.626,244.777 82.422,244.111 82.265 C 243.836 82.200,243.678 82.218,243.734 82.307 M245.401 82.807 C 245.453 82.892,245.724 82.995,246.003 83.036 C 246.613 83.126,246.444 82.922,245.778 82.765 C 245.502 82.700,245.345 82.718,245.401 82.807 M247.066 83.305 C 247.132 83.412,247.337 83.500,247.521 83.500 C 247.705 83.500,248.019 83.579,248.219 83.676 C 248.571 83.846,248.572 83.843,248.260 83.593 C 248.082 83.450,247.844 83.333,247.732 83.333 C 247.619 83.333,247.396 83.283,247.236 83.222 C 247.038 83.146,246.984 83.172,247.066 83.305 M248.833 83.809 C 248.971 83.889,249.308 84.004,249.583 84.063 C 249.903 84.132,249.993 84.119,249.833 84.025 C 249.696 83.944,249.358 83.830,249.083 83.770 C 248.763 83.701,248.673 83.715,248.833 83.809 M250.422 84.308 C 250.511 84.389,250.843 84.505,251.161 84.564 C 251.501 84.628,251.673 84.612,251.578 84.525 C 251.489 84.444,251.157 84.329,250.839 84.269 C 250.499 84.205,250.327 84.221,250.422 84.308 M252.013 84.735 C 252.052 84.774,252.414 84.920,252.817 85.059 C 253.362 85.247,253.490 85.256,253.316 85.094 C 253.112 84.903,251.827 84.549,252.013 84.735 M253.833 85.333 C 253.971 85.422,254.233 85.491,254.417 85.486 L 254.750 85.477 254.417 85.333 C 253.918 85.119,253.502 85.119,253.833 85.333 M254.938 85.671 C 255.018 85.751,255.421 85.858,255.833 85.909 C 256.709 86.018,256.561 85.912,255.522 85.685 C 255.121 85.598,254.858 85.592,254.938 85.671 M256.752 86.170 C 256.798 86.244,257.153 86.357,257.543 86.421 C 257.932 86.485,258.325 86.597,258.417 86.671 C 258.508 86.744,258.883 86.846,259.250 86.898 L 259.917 86.992 259.333 86.813 C 259.012 86.714,258.600 86.567,258.417 86.486 C 257.893 86.255,256.660 86.021,256.752 86.170 M260.120 87.173 C 260.332 87.364,261.205 87.530,261.099 87.359 C 261.047 87.274,260.776 87.172,260.497 87.131 C 260.218 87.090,260.048 87.109,260.120 87.173 M261.750 87.637 C 261.842 87.726,262.179 87.847,262.500 87.906 C 262.880 87.977,262.996 87.962,262.833 87.863 C 262.453 87.633,261.551 87.445,261.750 87.637 M263.417 88.133 C 263.508 88.219,263.846 88.335,264.167 88.392 C 264.847 88.511,264.514 88.274,263.750 88.094 C 263.436 88.020,263.312 88.035,263.417 88.133 M265.167 88.696 C 265.167 88.771,265.311 88.833,265.486 88.833 C 265.662 88.833,265.937 88.884,266.097 88.945 C 266.281 89.015,266.348 88.992,266.279 88.881 C 266.147 88.666,265.167 88.503,265.167 88.696 M266.953 89.173 C 267.166 89.364,268.038 89.530,267.933 89.359 C 267.880 89.274,267.609 89.172,267.330 89.131 C 267.051 89.090,266.881 89.109,266.953 89.173 M268.620 89.673 C 268.832 89.864,269.705 90.030,269.599 89.859 C 269.547 89.774,269.276 89.672,268.997 89.631 C 268.718 89.590,268.548 89.609,268.620 89.673 M270.286 90.173 C 270.499 90.364,271.371 90.530,271.266 90.359 C 271.214 90.274,270.942 90.172,270.663 90.131 C 270.384 90.090,270.215 90.109,270.286 90.173 M271.901 90.641 C 271.953 90.726,272.224 90.828,272.503 90.869 C 273.113 90.959,272.944 90.755,272.278 90.598 C 272.002 90.533,271.845 90.551,271.901 90.641 M273.567 91.141 C 273.620 91.226,273.891 91.328,274.170 91.369 C 274.780 91.459,274.611 91.255,273.944 91.098 C 273.669 91.033,273.512 91.051,273.567 91.141 M275.234 91.641 C 275.286 91.726,275.558 91.828,275.837 91.869 C 276.446 91.959,276.277 91.755,275.611 91.598 C 275.336 91.533,275.178 91.551,275.234 91.641 M277.000 92.178 C 277.000 92.264,277.144 92.333,277.320 92.333 C 277.496 92.333,277.777 92.383,277.945 92.443 C 278.113 92.504,278.204 92.501,278.148 92.438 C 277.964 92.232,277.000 92.014,277.000 92.178 M278.589 92.642 C 278.677 92.723,279.010 92.838,279.328 92.898 C 279.668 92.961,279.840 92.945,279.745 92.858 C 279.656 92.777,279.323 92.662,279.005 92.602 C 278.666 92.539,278.494 92.555,278.589 92.642 M280.453 93.173 C 280.666 93.364,281.538 93.530,281.433 93.359 C 281.380 93.274,281.109 93.172,280.830 93.131 C 280.551 93.090,280.381 93.109,280.453 93.173 M282.067 93.641 C 282.120 93.726,282.391 93.828,282.670 93.869 C 283.280 93.959,283.111 93.755,282.444 93.598 C 282.169 93.533,282.012 93.551,282.067 93.641 M283.734 94.141 C 283.786 94.226,284.058 94.328,284.337 94.369 C 284.946 94.459,284.777 94.255,284.111 94.098 C 283.836 94.033,283.678 94.051,283.734 94.141 M285.401 94.641 C 285.453 94.726,285.724 94.828,286.003 94.869 C 286.613 94.959,286.444 94.755,285.778 94.598 C 285.502 94.533,285.345 94.551,285.401 94.641 M287.083 95.133 C 287.175 95.219,287.512 95.335,287.833 95.392 C 288.513 95.511,288.181 95.274,287.417 95.094 C 287.103 95.020,286.979 95.035,287.083 95.133 M290.500 96.167 C 290.637 96.256,290.900 96.324,291.083 96.319 L 291.417 96.310 291.083 96.167 C 290.585 95.953,290.169 95.953,290.500 96.167 M291.598 96.493 C 291.681 96.574,292.050 96.684,292.417 96.737 C 293.172 96.847,293.056 96.766,292.098 96.516 C 291.739 96.422,291.514 96.412,291.598 96.493 M293.254 97.006 C 293.299 97.079,293.653 97.190,294.043 97.254 C 294.432 97.319,294.825 97.427,294.917 97.496 C 295.211 97.717,296.038 97.863,295.921 97.673 C 295.862 97.578,295.646 97.500,295.440 97.500 C 295.235 97.500,294.995 97.433,294.908 97.351 C 294.703 97.158,293.147 96.834,293.254 97.006 M296.620 98.007 C 296.832 98.198,297.705 98.363,297.599 98.193 C 297.547 98.108,297.276 98.005,296.997 97.964 C 296.718 97.923,296.548 97.942,296.620 98.007 M298.250 98.466 C 298.342 98.552,298.679 98.669,299.000 98.725 C 299.680 98.845,299.348 98.607,298.583 98.427 C 298.269 98.354,298.145 98.368,298.250 98.466 M299.901 98.974 C 299.953 99.059,300.224 99.162,300.503 99.203 C 301.113 99.292,300.944 99.089,300.278 98.932 C 300.002 98.866,299.845 98.884,299.901 98.974 M301.667 99.529 C 301.667 99.605,301.811 99.667,301.986 99.667 C 302.162 99.667,302.437 99.717,302.597 99.778 C 302.781 99.849,302.848 99.825,302.779 99.714 C 302.647 99.500,301.667 99.336,301.667 99.529 M303.453 100.007 C 303.666 100.198,304.538 100.363,304.433 100.193 C 304.380 100.108,304.109 100.005,303.830 99.964 C 303.551 99.923,303.381 99.942,303.453 100.007 M305.120 100.507 C 305.332 100.698,306.205 100.863,306.099 100.693 C 306.047 100.608,305.776 100.505,305.497 100.464 C 305.218 100.423,305.048 100.442,305.120 100.507 M306.734 100.974 C 306.786 101.059,307.058 101.162,307.337 101.203 C 307.946 101.292,307.777 101.089,307.111 100.932 C 306.836 100.866,306.678 100.884,306.734 100.974 M308.417 101.467 C 308.508 101.553,308.808 101.676,309.083 101.740 C 309.398 101.814,309.522 101.799,309.417 101.700 C 309.325 101.614,309.025 101.491,308.750 101.426 C 308.435 101.353,308.312 101.368,308.417 101.467 M310.067 101.974 C 310.120 102.059,310.391 102.162,310.670 102.203 C 311.280 102.292,311.111 102.089,310.444 101.932 C 310.169 101.866,310.012 101.884,310.067 101.974 M311.734 102.474 C 311.786 102.559,312.058 102.662,312.337 102.703 C 312.946 102.792,312.777 102.589,312.111 102.432 C 311.836 102.366,311.678 102.384,311.734 102.474 M313.500 103.029 C 313.500 103.105,313.644 103.167,313.820 103.167 C 313.996 103.167,314.270 103.217,314.430 103.278 C 314.614 103.349,314.681 103.325,314.613 103.214 C 314.480 103.000,313.500 102.836,313.500 103.029 M315.167 103.480 C 315.559 103.702,316.443 103.882,316.250 103.700 C 316.158 103.614,315.821 103.498,315.500 103.442 C 315.147 103.379,315.015 103.395,315.167 103.480 M316.923 104.011 C 316.963 104.075,317.218 104.161,317.489 104.201 C 317.760 104.240,317.950 104.220,317.910 104.156 C 317.870 104.091,317.615 104.006,317.344 103.966 C 317.073 103.926,316.884 103.946,316.923 104.011 M318.567 104.474 C 318.620 104.559,318.891 104.662,319.170 104.703 C 319.780 104.792,319.611 104.589,318.944 104.432 C 318.669 104.366,318.512 104.384,318.567 104.474 M320.195 104.912 C 320.257 104.976,320.585 105.092,320.924 105.168 C 321.263 105.245,321.475 105.246,321.395 105.171 C 321.216 105.003,320.040 104.749,320.195 104.912 M322.000 105.470 C 322.380 105.700,323.283 105.888,323.083 105.696 C 322.992 105.608,322.654 105.486,322.333 105.427 C 321.954 105.357,321.837 105.372,322.000 105.470 M323.541 105.930 C 323.595 105.984,323.918 106.092,324.257 106.168 C 324.596 106.245,324.809 106.248,324.729 106.176 C 324.560 106.023,323.392 105.781,323.541 105.930 "
       stroke="none"
       fill="#647c84"
       fill-rule="evenodd" />
  </g>
  <path
     style="fill:#244454;stroke:#244454;stroke-width:1px;stroke-linecap:butt;stroke-linejoin:miter;stroke-opacity:1;fill-opacity:1"
     d="M 399.167,28.482 230.915,78.169"
     id="path42" />
  <path
     style="fill:none;stroke:#a4dba4;stroke-width:1px;stroke-linecap:butt;stroke-linejoin:miter;stroke-opacity:1"
     d="M 0,9.963 230.915,78.169"
     id="path879" />
  <path
     style="fill:none;stroke:#5c8c84;stroke-width:1px;stroke-linecap:butt;stroke-linejoin:miter;stroke-opacity:1"
     d="m 137.75,105.952 93.165,-27.783 92.626,27.761"
     id="path881" />
  <path
     style="fill:#000000;stroke:#ffffff;stroke-width:0.3;stroke-linecap:butt;stroke-linejoin:miter;stroke-opacity:0.99215686;opacity:0.99;stroke-miterlimit:4;stroke-dasharray:none;fill-opacity:0"
     d="m 0,106.333 c 400,0 400,0 400,0"
     id="path883" />
</svg>
